<?xml version="1.0" encoding="utf-8"?>
<!-- Generator: Adobe Adobe Illustrator 24.2.0, SVG Export Plug-In . SVG Version: 6.00 Build 0)  -->
<svg version="1.1" id="Layer_1" xmlns="http://www.w3.org/2000/svg" xmlns:xlink="http://www.w3.org/1999/xlink" x="0px" y="0px"
	 viewBox="0 0 1920 1080" style="enable-background:new 0 0 1920 1080;" xml:space="preserve">
<style type="text/css">
	.st0{fill:none;stroke:#0000FF;stroke-width:5;stroke-miterlimit:10;stroke-dasharray:0,0,0,0,0,0;}
	.st1{fill:none;stroke:#000000;stroke-width:1.25;stroke-linecap:round;stroke-miterlimit:10;stroke-dasharray:5,11,5,11,5,11;}
	.st2{fill:none;stroke:#000000;stroke-width:5;stroke-miterlimit:10;stroke-dasharray:12,12,12,12,12,12;}
	.st3{font-family:'TimesNewRomanPSMT';}
	.st4{font-size:48px;}
	.st5{fill:none;stroke:#FF00AA;stroke-miterlimit:10;}
	.st6{fill:none;stroke:#FF00AA;stroke-width:5;stroke-miterlimit:10;stroke-dasharray:12,12,12,12,12,12;}
	.st7{fill:none;stroke:#0000FF;stroke-width:5;stroke-miterlimit:10;stroke-dasharray:12,12,12,12,12,12;}
	.st8{fill:none;stroke:#0000FF;stroke-width:5;stroke-miterlimit:10;}
	.st9{opacity:0.1686;fill:#0000FF;}
</style>
<line class="st0" x1="298.39" y1="789.56" x2="1534.19" y2="789.56"/>
<path class="st0" d="M301.26,653.68c17.79,34.56,39.55,67.22,64.76,97.19c8.4,9.99,18.06,20.21,31.03,23.18
	c16.86,3.86,34.52-6.23,44.16-20.12c9.65-13.89,12.98-30.86,15.87-47.35c20.39-116.34,29.36-235.15,65.02-348.01
	c5.53-17.5,12.12-35.5,25.65-48.33c13.52-12.83,35.95-18.74,51.83-8.75c9.51,5.98,14.98,16.29,19.6,26.29
	c50.16,108.56,49.24,231.83,75.44,347.96c7.65,33.93,18.55,68.88,43.7,93.71c4.41,4.35,10.48,8.63,16.49,6.77
	c4.45-1.38,7.11-5.68,9.29-9.67c21.02-38.4,35.96-79.89,44.14-122.59c7.75-40.43,14.47-89.05,52.95-106.73
	c8.84-4.06,20.36-5.57,27.68,0.7c4.13,3.54,6.05,8.82,7.82,13.86c13.39,38.27,26.78,76.55,40.16,114.82
	c10.1,28.89,24.15,61.62,54.41,70.41c49.23-78.12,19.19-181.81,53.56-267.01c7.69-19.07,20.41-38.41,40.69-44.38
	c3.56-1.05,7.53-1.62,10.93-0.15c3.68,1.59,5.9,5.21,7.79,8.65c52.7,96.07,30.3,218.88,86.09,313.31
	c8.34,14.11,22.68,29.05,39.02,25.12c10.16-2.45,16.92-11.55,22.04-20.36c34.79-59.87,34.56-131.94,44.25-199.94
	c11.35-79.64,37.58-157.28,77.05-228.08c3.72-6.67,7.86-13.59,14.64-17.41c11-6.21,25.8-1.94,34.84,6.72s13.55,20.7,17.33,32.44
	c36.63,113.53,30.35,236.45,63.89,350.86c5.44,18.54,12.34,37.51,26.44,51.17c14.09,13.66,37.25,20.39,54.59,10.82"/>
<line class="st0" x1="294.42" y1="170.58" x2="1544.99" y2="169.56"/>
<line class="st2" x1="294.42" y1="384.24" x2="1545.23" y2="391.99"/>
<text transform="matrix(1 0 0 1 80.4776 396.8231)" class="st3 st4">threshold</text>
<path class="st6" d="M506.45,414.95c9.84-42.61,21.1-78.56,30.94-121.17c7.27-31.49,2.11-15.82,9.47-41.17
	c1.15-3.96,8.22-20.21,9.09-21.84c7.42-13.89,13.76-20.01,19.61-20.35c14.41-0.84,30.78,30.11,33.89,40.57
	c15.34,51.63,24.11,99.82,42.03,172.95"/>
<path class="st6" d="M1327.46,416.45c2.84-12.73,11.25-22.92,21.81-70.33c7.81-35.03,6.26-28.35,14.16-56.56
	c1.23-4.4,10.82-28.74,11.75-30.55c7.96-15.46,20.77-21.26,27.05-21.64c15.47-0.93,30.04,27.5,33.37,39.14
	c16.46,57.44,8.87,66.06,28.11,147.42"/>
<path class="st6" d="M511.65,930.15c36.46-0.09,72.93-0.19,109.39-0.28"/>
<path class="st8" d="M945.97,931.86c43.23-2.28,86.58-2.28,129.81-0.01"/>
<text transform="matrix(1 0 0 1 645.9533 942.4509)" class="st3 st4">orginal</text>
<text transform="matrix(1 0 0 1 1102.2748 942.4512)" class="st3 st4">compressed</text>
<text transform="matrix(1 0 0 1 1584.4238 626.7985)" class="st3 st4">uncompressed</text>
<text transform="matrix(1 0 0 1 1584.4242 281.749)" class="st3 st4">compressed</text>
<rect x="297.97" y="388.11" class="st9" width="1243.73" height="397.59"/>
<rect class="st8" width="1920" height="1080"/>
</svg>
