<?xml version="1.0" encoding="utf-8"?>
<!-- Generator: Adobe Adobe Illustrator 24.2.0, SVG Export Plug-In . SVG Version: 6.00 Build 0)  -->
<svg version="1.1" id="Layer_1" xmlns="http://www.w3.org/2000/svg" xmlns:xlink="http://www.w3.org/1999/xlink" x="0px" y="0px"
	 viewBox="0 0 1920 1080" style="enable-background:new 0 0 1920 1080;" xml:space="preserve">
<style type="text/css">
	.st0{fill:none;stroke:#000000;stroke-width:1.25;stroke-linecap:round;stroke-miterlimit:10;stroke-dasharray:5,11,5,11,5,11;}
	.st1{fill:none;stroke:#FF00AA;stroke-miterlimit:10;}
	.st2{fill:none;stroke:#0000FF;stroke-width:5;stroke-miterlimit:10;stroke-dasharray:12,12,12,12,12,12;}
	.st3{font-family:'TimesNewRomanPSMT';}
	.st4{font-size:48px;}
	.st5{fill:none;stroke:#0000FF;stroke-width:5;stroke-miterlimit:10;stroke-dasharray:0,0,0,0,0,0;}
	.st6{fill:none;stroke:#000000;stroke-width:5;stroke-miterlimit:10;stroke-dasharray:12,12,12,12,12,12;}
	.st7{fill:none;stroke:#FF00AA;stroke-width:5;stroke-miterlimit:10;stroke-dasharray:12,12,12,12,12,12;}
	.st8{opacity:0.1686;fill:#0000FF;}
	.st9{fill:none;stroke:#0000FF;stroke-width:5;stroke-miterlimit:10;}
	.st10{fill:none;stroke:#000000;stroke-width:5;stroke-miterlimit:10;}
	.st11{opacity:0.9804;fill:none;stroke:#000000;stroke-width:5;stroke-miterlimit:10;}
</style>
<text transform="matrix(1 0 0 1 415.886 561.4803)" class="st3 st4">ratio</text>
<text transform="matrix(1 0 0 1 1521.6951 552.5862)" class="st3 st4">ratio</text>
<path class="st5" d="M361.3,613.79c86.01,246.53,84.43,526.48,129.35,790.21c13.12,77.04,31.8,156.41,74.93,212.81
	c7.55,9.88,17.98,19.59,28.27,15.37c7.64-3.14,12.19-12.89,15.93-21.95c36.04-87.21,61.65-181.42,75.69-278.39
	c13.29-91.81,24.81-202.24,90.79-242.38c15.16-9.22,34.91-12.65,47.47,1.6c7.08,8.03,10.38,20.03,13.4,31.49
	c22.96,86.92,45.91,173.83,68.87,260.75c17.33,65.6,41.41,139.94,93.3,159.91c84.41-177.41,32.91-412.9,91.85-606.38
	c13.19-43.3,35-87.23,69.78-100.79c6.11-2.38,12.92-3.68,18.74-0.33c6.32,3.62,10.12,11.83,13.36,19.65
	c90.36,218.17,51.95,497.07,147.61,711.52c14.3,32.05,38.89,65.98,66.91,57.04c17.42-5.56,29.02-26.22,37.8-46.24
	c59.65-135.97,59.25-299.64,75.87-454.05c19.46-180.85,64.44-357.17,132.12-517.95c6.38-15.15,13.48-30.86,25.1-39.55
	c18.86-14.1,44.25-4.41,59.74,15.27s23.23,47.02,29.72,73.67c62.81,257.83,52.04,536.96,109.56,796.8
	c9.32,42.11,21.17,85.18,45.33,116.21c24.17,31.02,63.88,46.32,93.61,24.58"/>
<path class="st5" d="M327.7,554.08c16.31,13.58,25.68,36.99,33.6,59.71"/>
<path class="st5" d="M238.82,573.95c23.19-29.13,61.64-42.56,88.88-19.87"/>
<path class="st5" d="M194.84,683.7c9.48-39.74,20.79-80.62,43.98-109.75"/>
<path class="st5" d="M-183.85,1353.88c30.51,78.49,67.83,152.66,111.05,220.71c14.41,22.68,30.97,45.89,53.21,52.64
	c28.91,8.78,59.18-14.15,75.72-45.69s22.26-70.09,27.21-107.52c34.97-264.2,50.34-534.02,111.49-790.32"/>
<line class="st5" x1="-195.58" y1="256.77" x2="1948.81" y2="254.44"/>
<line class="st6" x1="-195.58" y1="741.97" x2="1949.22" y2="759.59"/>
<path class="st7" d="M344.62,439.36c26.3,117.25,41.34,226.68,72.07,392.76"/>
<path class="st7" d="M286.51,347.23c24.72-1.9,52.78,68.39,58.11,92.13"/>
<path class="st7" d="M252.88,393.44c12.72-31.55,23.6-45.44,33.63-46.21"/>
<path class="st7" d="M237.3,443.05c1.97-8.98,14.09-45.91,15.58-49.6"/>
<path class="st7" d="M221.06,536.55c12.47-71.51,3.61-35.93,16.24-93.51"/>
<path class="st7" d="M168,811.72c16.88-96.77,36.18-178.4,53.06-275.17"/>
<path class="st7" d="M1575.79,815.14c4.86-28.9,19.28-52.05,37.4-159.72c13.39-79.56,10.74-64.39,24.29-128.45
	c2.11-10,18.55-65.26,20.15-69.38c13.66-35.11,35.61-48.29,46.38-49.14c26.53-2.11,51.5,62.46,57.22,88.88
	c28.23,130.45,15.22,150.01,48.2,334.79"/>
<rect x="-189.5" y="750.78" class="st8" width="2132.66" height="902.91"/>
<rect class="st9" width="1920" height="1080"/>
<g>
	<line class="st10" x1="286.51" y1="711.94" x2="286.51" y2="573.95"/>
	<line class="st10" x1="297.08" y1="582.8" x2="285.06" y2="570.77"/>
	<line class="st11" x1="276.13" y1="582.8" x2="288.32" y2="571.07"/>
</g>
<g>
	<line class="st10" x1="286.61" y1="368.78" x2="286.61" y2="506.77"/>
	<line class="st10" x1="276.04" y1="497.92" x2="288.06" y2="509.94"/>
	<line class="st11" x1="296.99" y1="497.92" x2="284.8" y2="509.65"/>
</g>
<g>
	<line class="st10" x1="1703.09" y1="731" x2="1703.09" y2="593.01"/>
	<line class="st10" x1="1713.66" y1="601.85" x2="1701.64" y2="589.83"/>
	<line class="st11" x1="1692.71" y1="601.85" x2="1704.9" y2="590.13"/>
</g>
<line class="st10" x1="1703.2" y1="438.79" x2="1703.18" y2="525.83"/>
<line class="st10" x1="1692.61" y1="516.98" x2="1704.63" y2="529"/>
<line class="st11" x1="1713.57" y1="516.98" x2="1701.38" y2="528.71"/>
</svg>
